<?xml version="1.0" encoding="UTF-8"?><svg id="Layer_2" xmlns="http://www.w3.org/2000/svg" xmlns:xlink="http://www.w3.org/1999/xlink" viewBox="0 0 1650.88 274.37"><defs><style>.cls-1{fill:url(#GradientFill_103-2);}.cls-2{fill:url(#GradientFill_103);fill-rule:evenodd;}</style><linearGradient id="GradientFill_103" x1="64.6" y1="228.55" x2="286.08" y2="147.94" gradientTransform="matrix(1, 0, 0, 1, 0, 0)" gradientUnits="userSpaceOnUse"><stop offset="0" stop-color="#2e3192"/><stop offset="1" stop-color="#00aeef"/></linearGradient><linearGradient id="GradientFill_103-2" x1="489.59" y1="137.18" x2="1650.88" y2="137.18" xlink:href="#GradientFill_103"/></defs><g id="Layer_1-2"><path class="cls-2" d="M77.31,200.18c4.93-13.38,11.75-27.22,20.02-39.16,9.75-14.07,22.01-26.47,35.53-33.44,14.87-7.67,27.23-6.74,34.64,2.35,5.05-8.37,10.47-16.63,16.18-24.61,6.13-8.66,12.64-17.01,19.47-25.03-8.04-8.01-20.37-8.03-33.96-3.8-16.04,5-33.48,16.65-49.06,32.26-3.11,3.11-6.17,6.57-9.13,10.21,18.89-23.11,41.57-41.82,63.76-50.36,16.28-7.53,31.7-9.96,43.13-4.62,7.87-8.24,16.16-16.18,24.81-23.75C272.56,14.05,305.99-2.92,334.66,.42c32.08,3.74,62.98,34.38,85.06,108.08,0,0,3.94-9.46,8.45-19.45,4.08-9.44,8.5-19.16,10.78-23.46,0,0-.81,3.89-1.99,10.59-1.27,7.24-3.08,18.06-4.76,31.69-1.91,14.41-3.9,32.2-5.81,52.74-2.43,22.87-4.86,49.35-6.85,77.57-16.03-37.8-59.13-59.81-76.99-55.46,17.36-16.76,23.91-22.32,43-30.6-14.2-67.47-41.5-85.13-68.83-78.9-26.03,5.93-55.8,33.06-77.25,68.01-13.51,22.02-20.59,43.07-18.73,56.05,.36,2.52,1,4.74,1.89,6.66,12.65-14.22,24.49-31.77,34.86-48.98-8.27,15.82-17.33,30.19-26.57,42.98-2.2,3.03-4.41,5.99-6.64,8.84,4.75,6.63,13.52,8.41,24.18,6.51,12.13-2.16,26.06-9.13,40.07-19.15,13.2-9.44,27.17-22.38,40.33-36.68,.1,.67,3.48-2.54,4.34-3.31,6.17-5.97,12.77-13.64,18.68-20.82-14.97,19.4-31.3,37.53-47.16,51.39-16.67,14.58-34.04,25.95-50.08,31.36-16.25,5.47-28.24,3.94-34.75-3.84-5.3,6.46-10.63,12.41-15.88,17.85-5.39,5.5-10.78,10.51-16.16,15,6.5,5.78,16.26,6.98,27.41,5.68,14.19-1.65,31.55-7.91,49.47-18.3,3.89-2.26,7.79-4.86,11.85-7.74-23.79,16.64-46.99,27.29-66.26,30.44-12.73,2.67-24.33,2.51-33.16-1.83-5.45,3.91-10.94,7.39-16.44,10.43-16.96,9.44-34.48,13.18-50.24,8.74-16.83-4.73-37.32-20.89-65-60.17,0,0,.47,5.18,.78,10.38,.36,4.73,.64,9.42,.6,11.42,0,0-.58-1.87-1.67-5.24-1.16-3.61-3.04-9.27-5.84-16.8-3.02-8.4-7.26-19.39-12.84-33.27-6.58-16.96-15.35-38.92-26.54-65.58,25.59,34.63,59.99,52.96,70.64,49.44-6.71,13.49-9.27,17.49-18.45,23.07,24.61,43,43.21,54.55,58.15,53.46,15.35-1.13,32.47-15.57,45.44-39.75,9.78-18.24,14.8-38.53,12-52.23-.56-2.83-1.36-5.3-2.39-7.43-10.74,15.77-19.37,33-25.75,47.82,4.84-13.51,11.03-27.22,18.24-40.76,1.82-3.42,3.71-6.83,5.66-10.22-5.31-7.51-14.26-9.15-24.42-6.23-10.87,3.12-21.74,11.24-31.29,21.7-8.2,8.98-15.53,20.1-21.31,31.42-.24-.55-1.76,1.8-2.13,2.37-2.67,4.25-5.09,9.44-7.08,14.26h0Zm92.59-66.72c3.6,6.37,5.18,15.17,4.64,25.76,3.82-10.2,8.31-20.9,13.4-32.09,3.08-6.78,11.76-25.95-2.97-11.29-5.38,5.36-10.41,11.32-15.07,17.63h0Zm22.54,43.49c1.54-2.8,3-5.65,4.36-8.54-1.56,2.86-3.02,5.72-4.36,8.54h0Zm22.29,8.78c-4.33,9.39-9.07,18.62-14.04,27.59-2.87,5.18-10.26,18.49,2.39,9.01,4.98-3.74,9.9-8.19,14.71-13.19-3.07-5.52-4.19-13.37-3.06-23.42Z"/><path class="cls-1" d="M599.02,174.05v34.74h-109.43V63.34h109.43v33.56h-65.63v21.1h53.06v32.28h-53.06v23.76h65.63Zm116.27-73.63l-39.69,108.36h-31.75l-40.6-108.36h43.69l15.51,46.02c1.28,3.76,2.42,7.49,3.42,11.19,.35-1.28,.88-2.91,1.59-4.9,.14-.28,.6-1.63,1.38-4.05l15.92-48.26h30.53Zm78.71,69.47l39.64,2.66c-2.34,10.66-8.33,19.73-17.95,27.22-9.63,7.5-22.64,11.24-39.05,11.24-18.26,0-32.82-5.27-43.69-15.82-10.87-10.55-16.3-23.64-16.3-39.26s5.36-29.87,16.09-41.02c10.72-11.15,25.04-16.73,42.94-16.73s31.34,5.26,42.03,15.77c10.69,10.51,16.04,24.83,16.04,42.94,0,1.49-.04,3.55-.11,6.18h-72.56c.14,6.82,1.35,11.88,3.62,15.18,2.27,3.3,6.61,4.95,13,4.95,9.23,0,14.67-4.44,16.3-13.32Zm-2.88-28.13c-.07-7.31-1.54-12.23-4.41-14.76-2.87-2.52-6.42-3.78-10.67-3.78-10.05,0-15.08,6.18-15.08,18.54h30.15Zm165.05,67.02h-42.51v-68.19c0-5.61-.87-9.2-2.61-10.76-1.74-1.56-3.93-2.34-6.55-2.34-7.74,0-11.61,5.4-11.61,16.2v65.1h-42.51V100.42h39.42v15.34c5.82-11.72,16.23-17.58,31.22-17.58,7.88,0,14.54,1.51,19.98,4.53,5.43,3.02,9.32,6.93,11.67,11.72,2.34,4.79,3.52,13.12,3.52,24.99v69.36Zm89.29-108.36v27.6h-21.63v39.96c0,5.47,1.03,8.72,3.09,9.75,2.06,1.03,4.19,1.55,6.39,1.55,3.41,0,7.46-.6,12.15-1.81v30.26c-8.38,1.63-16.62,2.45-24.72,2.45-13.07,0-22.68-2.81-28.82-8.42-6.14-5.61-9.22-14.56-9.22-26.85l.11-12.68v-34.2h-16.2v-27.6h16.2l.64-35.27,40.38-.64v35.91h21.63Zm194.56,108.36h-36.33l-39.83-64.26c-5.11-8.24-10.27-18.25-15.47-30.04,2.34,9.38,3.52,17.33,3.52,23.87v70.43h-36.23V63.34h42.19l33.89,53.27c6.75,10.58,11.86,19.89,15.34,27.92-2.27-12.43-3.41-25.15-3.41-38.15V63.34h36.33V208.79Zm96.32-38.89l39.64,2.66c-2.34,10.66-8.33,19.73-17.95,27.22-9.63,7.5-22.64,11.24-39.05,11.24-18.26,0-32.82-5.27-43.69-15.82s-16.3-23.64-16.3-39.26,5.36-29.87,16.09-41.02c10.72-11.15,25.04-16.73,42.94-16.73s31.34,5.26,42.03,15.77c10.69,10.51,16.04,24.83,16.04,42.94,0,1.49-.04,3.55-.11,6.18h-72.56c.14,6.82,1.35,11.88,3.62,15.18,2.27,3.3,6.61,4.95,13,4.95,9.23,0,14.67-4.44,16.3-13.32Zm-2.88-28.13c-.07-7.31-1.54-12.23-4.41-14.76-2.87-2.52-6.42-3.78-10.67-3.78-10.05,0-15.08,6.18-15.08,18.54h30.15Zm205.54-41.34l-34.29,108.36h-30.58l-14.19-58.71-14.81,58.71h-30.26l-34.95-108.36h41.76l14.3,53.06,13.63-53.06h31.45l13.44,53.02,15-53.02h29.5Zm1.6,77.67l33.56-4.58c1.92,7.81,9.52,11.72,22.8,11.72,11.01,0,16.52-2.13,16.52-6.39,0-1.85-1.07-3.29-3.2-4.32-2.13-1.03-7.18-2.08-15.13-3.15-22.02-3.05-35.77-7.83-41.23-14.33-5.47-6.5-8.21-13.73-8.21-21.68,0-11.08,4.62-20.05,13.85-26.9,9.23-6.85,21.35-10.28,36.33-10.28,26.28,0,43.05,9.48,50.29,28.45l-32.18,6.07c-2.98-6.39-9.27-9.59-18.86-9.59-4.55,0-7.94,.62-10.18,1.86-2.24,1.24-3.36,2.47-3.36,3.68,0,3.55,3.41,5.71,10.23,6.48,17.76,1.96,29.8,3.98,36.12,6.04,6.32,2.06,11.72,5.83,16.19,11.3,4.47,5.47,6.71,12.08,6.71,19.83,0,11.87-4.96,21.29-14.86,28.26s-23.57,10.45-40.97,10.45c-29.34,0-47.49-10.97-54.45-32.92Z"/></g></svg>